<svg width="40" height="40" xmlns="http://www.w3.org/2000/svg">

 <g>
  <title>background</title>
  <rect fill="none" id="canvas_background" height="402" width="582" y="-1" x="-1"/>
 </g>
 <g>
  <title>Layer 1</title>
  <path id="svg_2" fill="#4c4c4c" d="m34.7,36.5l-29.3,0c-2.9,0 -5.3,-2.4 -5.3,-5.3l0,-21.4c0,-2.9 2.4,-5.3 5.3,-5.3l29.3,0c2.9,0 5.3,2.4 5.3,5.3l0,21.3c0,3 -2.4,5.4 -5.3,5.4zm-29.3,-30c-1.9,0 -3.4,1.5 -3.4,3.3l0,21.3c0,1.8 1.5,3.3 3.3,3.3l29.3,0c1.8,0 3.3,-1.5 3.3,-3.3l0,-21.3c0,-1.8 -1.5,-3.3 -3.3,-3.3l-29.2,0z"/>
  <path id="svg_4" fill="#4c4c4c" d="m20,23.9c-1.7,0 -3.3,-0.8 -4.5,-2.1l-9.5,-11.4c-0.4,-0.4 -0.3,-1 0.1,-1.4c0.4,-0.4 1.1,-0.3 1.4,0.1l9.6,11.5c0.7,0.9 1.8,1.4 2.9,1.4c1.1,0 2.2,-0.5 2.9,-1.4l9.5,-11.4c0.4,-0.4 1,-0.5 1.4,-0.1c0.4,0.4 0.5,1 0.1,1.4l-9.5,11.4c-1,1.3 -2.6,2 -4.4,2z"/>
  <path id="svg_6" fill="#4c4c4c" d="m35.5,31.8c-0.3,0 -0.6,-0.1 -0.8,-0.4l-6.9,-8.2c-0.4,-0.4 -0.3,-1.1 0.1,-1.4c0.4,-0.4 1.1,-0.3 1.4,0.1l6.9,8.2c0.4,0.4 0.3,1.1 -0.1,1.4c-0.1,0.2 -0.4,0.3 -0.6,0.3z"/>
  <path id="svg_8" fill="#4c4c4c" d="m4.5,31.7c-0.2,0 -0.5,-0.1 -0.6,-0.2c-0.4,-0.4 -0.5,-1 -0.1,-1.4l6.8,-8.1c0.4,-0.4 1,-0.5 1.4,-0.1c0.4,0.4 0.5,1 0.1,1.4l-6.8,8.1c-0.2,0.2 -0.5,0.3 -0.8,0.3z"/>
 </g>
</svg>