<svg width="64" height="64" xmlns="http://www.w3.org/2000/svg">

 <g>
  <title>background</title>
  <rect fill="none" id="canvas_background" height="402" width="582" y="-1" x="-1"/>
 </g>
 <g>
  <title>Layer 1</title>
  <path id="svg_2" stroke-width="2" stroke-miterlimit="10" stroke-linejoin="round" stroke-linecap="round" stroke="#4c4c4c" fill="none" d="m13,28.812698l0,-3.1c0,-8.8 7.2,-16 16,-16l0,0c8.8,0 16,7.2 16,16l0,3.1"/>
  <path id="svg_3" stroke-miterlimit="10" stroke-linejoin="round" stroke-linecap="round" stroke="#4c4c4c" fill="none" d="m45,44.5l2.6,-9.7c0.1,-0.4 0.1,-0.7 0.1,-1.1c0,0 0.1,0 0.1,0c1.9,0.5 3.1,2.5 2.6,4.5l-1.3,5c-0.5,1.9 -2.5,3.1 -4.5,2.6c-0.1,0 -0.1,0 -0.2,-0.1c0.3,-0.4 0.5,-0.8 0.6,-1.2z"/>
  <path id="svg_4" stroke-width="2" stroke-miterlimit="10" stroke-linejoin="round" stroke-linecap="round" stroke="#4c4c4c" fill="none" d="m36.2,42.012698c-0.6,2.4 0.8,4.9 3.2,5.6l0,0c2.4,0.7 4.9,-0.8 5.6,-3.2l2.6,-9.7c0.6,-2.4 -0.8,-4.9 -3.2,-5.6l0,0c-2.4,-0.6 -4.9,0.8 -5.6,3.2l-2.6,9.7z"/>
  <path id="svg_5" stroke-miterlimit="10" stroke-linejoin="round" stroke-linecap="round" stroke="#4c4c4c" fill="none" d="m12.5,44.412698l-2.6,-9.7c-0.1,-0.4 -0.1,-0.7 -0.1,-1.1c0,0 -0.1,0 -0.1,0c-1.9,0.5 -3.1,2.5 -2.6,4.5l1.3,5c0.5,1.9 2.5,3.1 4.5,2.6c0.1,0 0.1,0 0.2,-0.1c-0.3,-0.4 -0.5,-0.8 -0.6,-1.2z"/>
  <path id="svg_6" stroke-width="2" stroke-miterlimit="10" stroke-linejoin="round" stroke-linecap="round" stroke="#4c4c4c" fill="none" d="m21.2,42.012698c0.6,2.4 -0.8,4.9 -3.2,5.6l0,0c-2.4,0.7 -4.9,-0.8 -5.6,-3.2l-2.6,-9.7c-0.6,-2.4 0.8,-4.9 3.2,-5.6l0,0c2.4,-0.6 4.9,0.8 5.6,3.2l2.6,9.7z"/>
  <path id="svg_7" stroke-width="2" stroke-miterlimit="10" stroke-linejoin="round" stroke-linecap="round" stroke="#4c4c4c" fill="none" d="m41.9,47.9c0,0 1.8,0 4.1,0c2.2,0 4.1,1.4 4.1,3.2s1.6,3.2 3.5,3.2s3.5,0 3.5,0"/>
 </g>
</svg>