<svg width="512" height="512" xmlns="http://www.w3.org/2000/svg">

 <g>
  <title>background</title>
  <rect fill="none" id="canvas_background" height="402" width="582" y="-1" x="-1"/>
 </g>
 <g>
  <title>Layer 1</title>
  <path fill="#4c4c4c" id="svg_1" d="m454.2,89.5l-75,0l0,22.2l10.8,0c7.2,0 13,5.8 13,13c0,7.2 -5.8,13 -13,13l-47.5,0c-7.2,0 -13,-5.8 -13,-13c0,-7.2 5.8,-13 13,-13l10.8,0l0,-22.2l-194.5,0l0,22.2l10.8,0c7.2,0 13,5.8 13,13c0,7.2 -5.8,13 -13,13l-47.5,0c-7.2,0 -13,-5.8 -13,-13c0,-7.2 5.8,-13 13,-13l10.8,0l0,-22.2l-75,0c-28.7,0 -51.9,23.2 -51.9,51.9l0,229.3c0,28.6 23.2,51.8 51.8,51.8l396.4,0c28.6,0 51.8,-23.2 51.8,-51.8l0,-229.3c0,-28.7 -23.2,-51.9 -51.8,-51.9zm-305.6,96.9c24.4,0 44.2,19.8 44.2,44.2s-19.8,44.2 -44.2,44.2s-44.2,-19.8 -44.2,-44.2s19.8,-44.2 44.2,-44.2zm-96.5,177.3c0,-45.4 36.8,-82.2 82.2,-82.2l28.7,0c45.4,0 82.2,36.8 82.2,82.2l-193.1,0zm396.8,-15.9l-159.8,0c-6,0 -10.9,-4.9 -10.9,-10.9l0,0c0,-6 4.9,-10.9 10.9,-10.9l159.9,0c6,0 10.9,4.9 10.9,10.9l0,0c0,6 -4.9,10.9 -11,10.9zm0,-61.8l-159.8,0c-6,0 -10.9,-4.9 -10.9,-10.9l0,0c0,-6 4.9,-10.9 10.9,-10.9l159.9,0c6,0 10.9,4.9 10.9,10.9l0,0c0,6 -4.9,10.9 -11,10.9zm0,-61.8l-159.8,0c-6,0 -10.9,-4.9 -10.9,-10.9l0,0c0,-6 4.9,-10.9 10.9,-10.9l159.9,0c6,0 10.9,4.9 10.9,10.9l0,0c0,6 -4.9,10.9 -11,10.9z"/>
 </g>
</svg>